<svg width="24" height="24" viewBox="0 0 24 24" fill="none" xmlns="http://www.w3.org/2000/svg">
<path d="M9.89064 19.7662C4.43691 19.7662 0 15.3326 0 9.88308C0 4.43352 4.43691 0 9.89064 0C15.3444 0 19.7813 4.43352 19.7813 9.88308C19.7813 15.3326 15.3444 19.7662 9.89064 19.7662ZM9.89064 1.87357C5.47079 1.87357 1.875 5.46661 1.875 9.88308C1.875 14.2995 5.47079 17.8926 9.89064 17.8926C14.3105 17.8926 17.9063 14.2995 17.9063 9.88308C17.9063 5.46661 14.3105 1.87357 9.89064 1.87357ZM23.7255 23.7257C24.0916 23.3598 24.0916 22.7666 23.7255 22.4008L19.5302 18.2087C19.164 17.8428 18.5704 17.8428 18.2043 18.2087C17.8382 18.5746 17.8382 19.1677 18.2043 19.5336L22.3996 23.7257C22.5827 23.9086 22.8226 24 23.0626 24C23.3025 24 23.5424 23.9086 23.7255 23.7257Z" fill="white"/>
</svg>
