<svg width="32" height="32" viewBox="0 0 32 32" fill="none" xmlns="http://www.w3.org/2000/svg">
<path opacity="0.2" d="M30.7458 31.5024C30.7458 31.2294 24.6262 31.0047 17.0863 31.0047C9.54636 31.0047 3.42676 31.2294 3.42676 31.5024C3.42676 31.7753 9.54636 32 17.0863 32C24.6437 32 30.7458 31.7753 30.7458 31.5024Z" fill="#5D5D5D"/>
<path d="M17.2791 6.29858C23.2234 6.29858 28.0454 10.7133 28.0454 16.1554V26.0121H17.2791C11.3349 26.0121 6.51282 21.5975 6.51282 16.1554V6.29858H17.2791Z" fill="#63A60F"/>
<path opacity="0.3" d="M26.5024 11.0825C25.6082 12.0297 25.0646 13.2658 25.0646 14.6143C25.0646 16.6209 26.2569 18.3708 28.0279 19.3179V16.1554C28.0279 14.3093 27.4844 12.5755 26.5024 11.0825Z" fill="#63A60F"/>
<path d="M22.2765 7.43835C20.5932 8.32129 19.4709 9.97479 19.4709 11.8851C19.4709 14.7105 21.9784 17.0062 25.0645 17.0062C26.1517 17.0062 27.1687 16.7172 28.0279 16.2196V16.1553C28.0279 12.3667 25.6958 9.0758 22.2765 7.43835Z" fill="#63A60F"/>
<path opacity="0.5" d="M13.8248 8.2085C11.0543 8.2085 8.51177 9.09143 6.51282 10.5844V16.171C6.51282 21.6131 11.3349 26.0278 17.2791 26.0278H22.4343C24.3105 24.1335 25.4503 21.6291 25.4503 18.8679C25.4503 12.9764 20.2425 8.2085 13.8248 8.2085Z" fill="#EFF6E7"/>
<path d="M28.0279 25.9961L17.2791 26.0121C11.3349 26.0121 6.51282 21.5975 6.51282 16.1554V6.31464L28.0279 25.9961Z" fill="#63A60F"/>
<path opacity="0.3" d="M8.17859 9.83033C8.17859 17.3112 14.8067 23.3633 22.9603 23.3633C23.6617 23.3633 24.3456 23.3152 25.0119 23.2349L8.31887 7.96814C8.23119 8.57817 8.17859 9.20425 8.17859 9.83033Z" fill="#63A60F"/>
<path opacity="0.3" d="M28.0278 26.0121L6.60046 6.3949C9.12546 9.84637 12.0362 13.346 14.9996 16.2356C17.3142 18.4831 23.9949 23.5078 28.0278 26.0121Z" fill="#63A60F"/>
<path opacity="0.3" d="M13.5442 12.736L6.51282 6.31464V16.1714C6.51282 20.5219 9.59892 24.2142 13.8598 25.5145C12.0362 23.8289 10.914 21.5172 10.914 18.9808C10.914 16.5727 11.9135 14.3895 13.5442 12.736Z" fill="#63A60F"/>
<path opacity="0.3" d="M23.1182 21.5172C21.2946 23.556 18.5241 24.8724 15.4205 24.8724C13.3514 24.8724 11.4226 24.2944 9.8269 23.2991C11.7557 24.9847 14.3684 26.0282 17.2616 26.0282H28.0279V26.0121L23.1182 21.5172Z" fill="#63A60F"/>
<path opacity="0.3" d="M7.14407 12.2062C7.14407 10.6169 7.44216 9.07582 8.00327 7.66312L6.51282 6.31464V16.1714C6.51282 21.6135 11.3349 26.0282 17.2791 26.0282H28.0454V26.0121L26.9758 25.0329C25.4152 25.5466 23.7494 25.8195 21.9959 25.8195C13.7897 25.8034 7.14407 19.7192 7.14407 12.2062Z" fill="#EFF6E7"/>
<path d="M27.8526 27.9225C28.6066 27.7298 29.3956 28.1472 29.5885 28.8375C29.7989 29.5278 29.343 30.2502 28.5715 30.4268C27.8175 30.6194 27.0285 30.2021 26.8356 29.5118C26.6427 28.8215 27.0986 28.1151 27.8526 27.9225ZM27.572 26.9432C26.2219 27.2803 25.4153 28.5325 25.7835 29.7686C26.1342 31.0047 27.5194 31.7432 28.8696 31.4061C30.2198 31.0689 31.0264 29.8007 30.6581 28.5807C30.3074 27.3445 28.9222 26.6221 27.572 26.9432Z" fill="#63A60F"/>
<path opacity="0.5" d="M29.3603 29.961C29.1674 30.1857 28.9044 30.3623 28.5888 30.4426C27.8348 30.6352 27.0457 30.2178 26.8528 29.5276C26.7126 29.0138 26.9054 28.5001 27.3263 28.1951C27.1158 27.9222 26.9405 27.6172 26.7652 27.3122C25.9235 27.858 25.5027 28.8373 25.7832 29.8005C26.1339 31.0366 27.5191 31.775 28.8693 31.4379C29.5006 31.2774 30.0091 30.9242 30.3422 30.4586C30.0091 30.2981 29.6759 30.1376 29.3603 29.961Z" fill="#63A60F"/>
<path d="M7.02114 27.9225C7.77513 27.7459 8.56419 28.1633 8.75708 28.8536C8.94996 29.5439 8.49406 30.2663 7.74006 30.4428C6.98607 30.6194 6.19701 30.202 6.00413 29.5118C5.81125 28.8215 6.26715 28.0991 7.02114 27.9225ZM6.74059 26.9432C5.39042 27.2643 4.58382 28.5325 4.93452 29.7686C5.28521 31.0047 6.67045 31.7432 8.02062 31.4221C9.37079 31.101 10.1774 29.8328 9.84423 28.5967C9.476 27.3606 8.09076 26.6221 6.74059 26.9432Z" fill="#63A60F"/>
<path opacity="0.5" d="M8.51179 29.9771C8.31891 30.2018 8.05589 30.3784 7.74026 30.4426C6.98627 30.6192 6.19722 30.2018 6.00433 29.5115C5.86406 28.9978 6.07447 28.4841 6.47777 28.1791C6.26735 27.9062 6.09201 27.6012 5.9342 27.2961C5.09253 27.8259 4.65417 28.8052 4.93472 29.7684C5.28541 31.0045 6.67065 31.7429 8.02082 31.4219C8.65206 31.2774 9.1781 30.9082 9.49373 30.4426C9.14303 30.3142 8.82741 30.1537 8.51179 29.9771Z" fill="#63A60F"/>
<path d="M7.19668 5.62429C6.86352 5.62429 6.58297 5.36744 6.58297 5.06242C6.58297 3.74605 6.17967 2.75074 5.40814 2.09255C4.16318 1.01697 2.28697 1.12935 2.26944 1.12935C1.93628 1.16145 1.63819 0.920651 1.60312 0.615637C1.56805 0.310623 1.83107 0.0377154 2.16423 0.00560866C2.26944 0.00560866 4.58401 -0.154925 6.23227 1.24172C7.28435 2.12466 7.81039 3.40893 7.81039 5.04637C7.81039 5.36744 7.54737 5.62429 7.19668 5.62429Z" fill="#63A60F"/>
</svg>
