<?xml version="1.0" encoding="utf-8"?><svg viewBox="0 0 24 24" xmlns="http://www.w3.org/2000/svg" xmlns:xlink="http://www.w3.org/1999/xlink"><style>:root>svg{display:none}:root>svg:target{display:block}</style><svg viewBox="0 0 24 24" id="search" xmlns="http://www.w3.org/2000/svg"><path d="M9.89 19.766C4.438 19.766 0 15.333 0 9.883 0 4.433 4.437 0 9.89 0c5.454 0 9.891 4.434 9.891 9.883 0 5.45-4.437 9.883-9.89 9.883zm0-17.892c-4.42 0-8.015 3.593-8.015 8.01 0 4.415 3.596 8.009 8.016 8.009s8.015-3.594 8.015-8.01-3.595-8.01-8.015-8.01zm13.835 21.852a.936.936 0 000-1.325l-4.195-4.192a.938.938 0 00-1.326 1.325l4.196 4.192a.935.935 0 001.326 0z"/></svg></svg>