<svg width="23" height="23" viewBox="0 0 23 23" fill="none" xmlns="http://www.w3.org/2000/svg">
<path d="M21.4627 16.5977L18.2687 13.4023C17.8397 12.9756 17.2653 12.7404 16.6515 12.7404C16.0128 12.7404 15.4097 12.9919 14.9537 13.4482L13.7104 14.6913C12.7443 14.1543 11.4602 13.4157 10.127 12.0825C8.79538 10.7504 8.05671 9.47009 7.51697 8.49875L8.76146 7.25517C9.68672 6.32798 9.70565 4.84049 8.80379 3.93946L5.6104 0.745981C5.18265 0.317039 4.60826 0.0808105 3.99291 0.0808105C3.36842 0.0808105 2.77767 0.321245 2.32432 0.758871C2.05006 0.979742 0.673731 2.19471 0.160774 4.70035C-0.55742 8.20749 1.09271 11.5819 5.85641 16.3475C11.1779 21.6673 15.7208 22.0808 16.9864 22.0808C17.2499 22.0808 17.4089 22.0645 17.4513 22.0596C19.9331 21.7687 20.8217 20.6665 21.4705 19.8618C22.3112 18.8188 22.3082 17.4464 21.4627 16.5977ZM20.4029 19.0011C19.793 19.7575 19.2171 20.4718 17.2918 20.6975C17.2908 20.6976 17.1854 20.7094 16.9864 20.7094C15.8541 20.7094 11.7748 20.3249 6.82611 15.3778C2.43311 10.983 0.891219 7.96915 1.50419 4.97534C1.9516 2.78985 3.13942 1.86094 3.18558 1.82565L3.22654 1.79539L3.26247 1.75937C3.46076 1.56126 3.72012 1.45211 3.99282 1.45211C4.24112 1.45211 4.47076 1.54517 4.64007 1.71503L7.83419 4.90924C8.2017 5.27638 8.18214 5.8942 7.79113 6.28602L6.38373 7.69224L6.3606 7.71647C5.99382 8.12045 6.03697 8.66641 6.23901 9.02194C6.82199 10.074 7.62054 11.5149 9.15713 13.0519C10.6886 14.5834 12.1274 15.3813 13.1765 15.9632C13.2815 16.0221 13.4984 16.1211 13.7698 16.1211C14.0903 16.1211 14.3846 15.9854 14.6025 15.7381L15.9233 14.4176C16.1205 14.2204 16.379 14.1117 16.6514 14.1117C16.9002 14.1117 17.131 14.205 17.3 14.373L20.4919 17.5663C20.8974 17.9732 20.73 18.5953 20.4029 19.0011Z" fill="white"/>
<path d="M13.3881 3.44055C14.5662 3.57612 15.9535 4.28975 16.9221 5.25852C17.8999 6.23626 18.6152 7.63754 18.7444 8.82847C18.7825 9.17979 19.0796 9.44016 19.4252 9.44016C19.4499 9.44016 19.4749 9.43879 19.5 9.43614C19.8765 9.39527 20.1485 9.05702 20.1077 8.68055C19.9443 7.17514 19.0952 5.49237 17.8918 4.28892C16.6997 3.09672 15.0341 2.24971 13.5449 2.0783C13.1689 2.03469 12.8287 2.30493 12.7854 2.68103C12.7421 3.05713 13.0118 3.39722 13.3881 3.44055Z" fill="white"/>
<path d="M12.7476 6.31279C13.3848 6.3862 14.2666 6.85884 14.8443 7.43652C15.4269 8.01923 15.9005 8.90948 15.9702 9.55353C16.0083 9.90495 16.3054 10.1653 16.651 10.1653C16.6757 10.1653 16.7006 10.1639 16.7257 10.1613C17.1022 10.1204 17.3743 9.78217 17.3335 9.40571C17.2142 8.30611 16.4843 7.13731 15.8138 6.46683C15.1493 5.8023 13.992 5.07579 12.9044 4.95045C12.5278 4.90666 12.1881 5.17699 12.1447 5.55309C12.1015 5.92928 12.3714 6.26946 12.7476 6.31279Z" fill="white"/>
</svg>
