<svg width="37" height="40" viewBox="0 0 37 40" fill="none" xmlns="http://www.w3.org/2000/svg">
<path opacity="0.2" d="M36.4323 39.3778C36.4323 39.0367 28.7828 38.7557 19.3579 38.7557C9.93297 38.7557 2.28345 39.0367 2.28345 39.3778C2.28345 39.7189 9.93297 39.9999 19.3579 39.9999C28.8047 39.9999 36.4323 39.7189 36.4323 39.3778Z" fill="#5D5D5D"/>
<path d="M19.5992 7.87305C27.0296 7.87305 33.0571 13.3914 33.0571 20.194V32.515H19.5992C12.1689 32.515 6.14136 26.9967 6.14136 20.194V7.87305H19.5992Z" fill="white"/>
<path opacity="0.3" d="M31.1283 13.8528C30.0105 15.0367 29.3311 16.5819 29.3311 18.2675C29.3311 20.7759 30.8215 22.9631 33.0352 24.1471V20.1939C33.0352 17.8862 32.3557 15.719 31.1283 13.8528Z" fill="white"/>
<path d="M25.8458 9.29773C23.7416 10.4014 22.3389 12.4683 22.3389 14.8562C22.3389 18.388 25.4732 21.2575 29.3308 21.2575C30.6898 21.2575 31.961 20.8963 33.035 20.2743V20.194C33.035 15.4582 30.1199 11.3445 25.8458 9.29773Z" fill="white"/>
<path opacity="0.5" d="M15.2813 10.2603C11.8182 10.2603 8.64005 11.364 6.14136 13.2302V20.2135C6.14136 27.0161 12.1689 32.5345 19.5992 32.5345H26.0432C28.3885 30.1666 29.8132 27.0362 29.8132 23.5847C29.8132 16.2202 23.3034 10.2603 15.2813 10.2603Z" fill="#F8F6EC"/>
<path d="M33.0352 32.495L19.5992 32.515C12.1689 32.515 6.14136 26.9967 6.14136 20.194V7.89313L33.0352 32.495Z" fill="white"/>
<path opacity="0.3" d="M8.22363 12.2878C8.22363 21.639 16.5088 29.2041 26.7008 29.2041C27.5775 29.2041 28.4323 29.1439 29.2652 29.0436L8.39898 9.96008C8.28939 10.7226 8.22363 11.5052 8.22363 12.2878Z" fill="white"/>
<path opacity="0.3" d="M33.0352 32.515L6.25098 7.99341C9.40722 12.3078 13.0457 16.6823 16.7499 20.2943C19.6431 23.1037 27.994 29.3846 33.0352 32.515Z" fill="white"/>
<path opacity="0.3" d="M14.9307 15.9198L6.14136 7.89313V20.2141C6.14136 25.6522 9.999 30.2675 15.3252 31.8929C13.0457 29.7859 11.6429 26.8963 11.6429 23.7258C11.6429 20.7158 12.8922 17.9867 14.9307 15.9198Z" fill="white"/>
<path opacity="0.3" d="M26.8981 26.8964C24.6186 29.4448 21.1555 31.0903 17.2759 31.0903C14.6895 31.0903 12.2785 30.3679 10.2839 29.1238C12.695 31.2308 15.9608 32.5351 19.5773 32.5351H33.0352V32.5151L26.8981 26.8964Z" fill="white"/>
<path opacity="0.3" d="M6.93042 15.2576C6.93042 13.271 7.30303 11.3446 8.00442 9.57874L6.14136 7.89313V20.2141C6.14136 27.0168 12.1689 32.5352 19.5992 32.5352H33.0571V32.5151L31.7201 31.291C29.7694 31.9332 27.6871 32.2743 25.4953 32.2743C15.2375 32.2542 6.93042 24.6489 6.93042 15.2576Z" fill="#F8F6EC"/>
<path d="M32.8155 34.903C33.758 34.6622 34.7443 35.1839 34.9854 36.0468C35.2484 36.9097 34.6785 37.8127 33.7141 38.0335C32.7716 38.2743 31.7853 37.7525 31.5442 36.8896C31.3031 36.0268 31.873 35.1438 32.8155 34.903ZM32.4648 33.6789C30.7771 34.1003 29.7688 35.6655 30.2291 37.2107C30.6675 38.7559 32.399 39.6789 34.0867 39.2575C35.7744 38.8361 36.7827 37.2508 36.3224 35.7258C35.884 34.1806 34.1525 33.2776 32.4648 33.6789Z" fill="white"/>
<path opacity="0.5" d="M34.7001 37.451C34.459 37.732 34.1303 37.9527 33.7357 38.053C32.7932 38.2938 31.8069 37.7721 31.5658 36.9092C31.3905 36.2671 31.6316 35.6249 32.1576 35.2437C31.8946 34.9025 31.6754 34.5213 31.4562 34.14C30.4042 34.8223 29.8781 36.0463 30.2288 37.2504C30.6672 38.7955 32.3987 39.7186 34.0864 39.2972C34.8755 39.0965 35.5111 38.655 35.9276 38.0731C35.5111 37.8724 35.0947 37.6718 34.7001 37.451Z" fill="white"/>
<path d="M6.77631 34.903C7.7188 34.6822 8.70512 35.2039 8.94622 36.0668C9.18733 36.9297 8.61745 37.8327 7.67496 38.0534C6.73247 38.2741 5.74615 37.7524 5.50504 36.8895C5.26394 36.0267 5.83382 35.1237 6.77631 34.903ZM6.42561 33.6789C4.7379 34.0802 3.72966 35.6655 4.16802 37.2106C4.60639 38.7557 6.33794 39.6788 8.02565 39.2774C9.71337 38.8761 10.7216 37.2909 10.3052 35.7457C9.84488 34.2006 8.11333 33.2776 6.42561 33.6789Z" fill="white"/>
<path opacity="0.5" d="M8.63962 37.4712C8.39852 37.7521 8.06974 37.9729 7.67521 38.0532C6.73273 38.2739 5.7464 37.7522 5.5053 36.8893C5.32995 36.2471 5.59297 35.605 6.09709 35.2237C5.83407 34.8825 5.61489 34.5013 5.41762 34.12C4.36554 34.7822 3.81759 36.0063 4.16828 37.2103C4.60665 38.7555 6.33819 39.6786 8.02591 39.2773C8.81497 39.0966 9.47252 38.6351 9.86705 38.0532C9.42868 37.8926 9.03415 37.6919 8.63962 37.4712Z" fill="white"/>
<path d="M6.99601 7.03022C6.57956 7.03022 6.22886 6.70915 6.22886 6.32788C6.22886 4.6824 5.72474 3.43826 4.76033 2.61552C3.20413 1.27104 0.858866 1.41151 0.836948 1.41151C0.420499 1.45164 0.0478868 1.15064 0.00405006 0.769368C-0.0397867 0.388098 0.288989 0.0469614 0.705438 0.00682776C0.836948 0.00682776 3.73017 -0.193841 5.7905 1.55197C7.1056 2.65565 7.76315 4.261 7.76315 6.30782C7.76315 6.70915 7.43437 7.03022 6.99601 7.03022Z" fill="white"/>
</svg>
