<?xml version="1.0" encoding="utf-8"?><svg viewBox="0 0 32 23" xmlns="http://www.w3.org/2000/svg" xmlns:xlink="http://www.w3.org/1999/xlink"><style>:root>svg{display:none}:root>svg:target{display:block}</style><svg viewBox="0 0 32 23" id="address" xmlns="http://www.w3.org/2000/svg"><path d="M31.917 14.34l-1.62-2.479a3.866 3.866 0 00-3.25-1.75h-4.19v-2.41a2.671 2.671 0 00-2.669-2.668h-7.841A4.986 4.986 0 007.459.99 4.984 4.984 0 002.48 5.97c0 1.726.884 3.249 2.222 4.142H.508a.508.508 0 100 1.016h5.08v1.016H3.554a.508.508 0 000 1.016h2.032v1.015H.508a.508.508 0 100 1.016h5.08v2.25a2.548 2.548 0 00-1.525 2.328v.502c0 .28.228.508.509.508h4.505a2.811 2.811 0 002.732 2.173c1.33 0 2.445-.93 2.733-2.173h9.773a2.812 2.812 0 002.733 2.173c1.329 0 2.444-.93 2.733-2.173h1.711c.28 0 .508-.227.508-.508v-5.654a.508.508 0 00-.083-.278zM3.497 5.97a3.968 3.968 0 013.962-3.963 3.967 3.967 0 013.963 3.963 3.967 3.967 0 01-3.963 3.963A3.968 3.968 0 013.496 5.97zm3.106 9.221H7.62a.508.508 0 100-1.016H6.603V13.16h3.556a.508.508 0 100-1.016H6.603v-1.016h6.603a.508.508 0 100-1.016h-2.99a4.976 4.976 0 002.218-4.064h7.755c.91 0 1.652.742 1.652 1.653v9.522H6.603v-2.031zm15.238 4.572H14.59a2.797 2.797 0 00-.722-1.524h7.974v1.524zM6.61 18.239h3.142c-.382.413-.642.94-.721 1.524H5.079a1.532 1.532 0 011.53-1.524zm5.2 3.697a1.794 1.794 0 01-1.793-1.792c0-.988.805-1.792 1.792-1.792.989 0 1.793.804 1.793 1.792s-.804 1.792-1.793 1.792zm15.238 0a1.794 1.794 0 01-1.792-1.792c0-.988.804-1.792 1.792-1.792s1.792.804 1.792 1.792-.804 1.792-1.792 1.792zm3.936-2.173h-1.157a2.81 2.81 0 00-2.78-2.427 2.81 2.81 0 00-2.779 2.427h-1.41v-8.635h4.188c.976 0 1.874.482 2.401 1.288l1.537 2.352v4.995z"/><path d="M27.879 20.144a.831.831 0 11-1.662 0 .831.831 0 011.662 0zM12.64 20.144a.831.831 0 11-1.662 0 .831.831 0 011.662 0zM8.127 5.97V3.748a.508.508 0 10-1.016 0v2.056L6.074 7.226a.507.507 0 10.821.598L8.03 6.27a.508.508 0 00.097-.3zM26.876 11.636h-.971a.508.508 0 00-.508.508v3.555c0 .281.227.508.508.508h3.418a.874.874 0 00.764-.44.872.872 0 00.003-.88l-1.187-2.075a2.34 2.34 0 00-2.027-1.176zm-.463 3.556v-2.54h.463c.473 0 .911.254 1.145.664l1.072 1.875h-2.68z"/></svg></svg>