<?xml version="1.0" encoding="utf-8"?><svg viewBox="0 0 16 16" xmlns="http://www.w3.org/2000/svg" xmlns:xlink="http://www.w3.org/1999/xlink"><style>:root>svg{display:none}:root>svg:target{display:block}</style><svg viewBox="0 0 16 16" id="cart" xmlns="http://www.w3.org/2000/svg"><path d="M15.899 2.02a.462.462 0 00-.36-.174H3.255L2.91.358A.462.462 0 002.461 0h-2a.462.462 0 000 .923h1.633l2.332 10.104c.048.21.235.358.45.358h9.247a.461.461 0 100-.923h-8.88l-.355-1.539h9.266c.216 0 .403-.15.45-.36l1.385-6.154a.462.462 0 00-.09-.39zM13.785 8h-9.11L3.468 2.77h11.494L13.785 8zM6.77 12c-.934 0-1.693.76-1.693 1.692 0 .934.76 1.693 1.692 1.693.933 0 1.693-.76 1.693-1.693S7.702 12 6.769 12zm0 2.462a.77.77 0 11.001-1.54.77.77 0 01-.002 1.54zM12.308 12c-.934 0-1.693.76-1.693 1.692 0 .934.76 1.693 1.693 1.693S14 14.625 14 13.692 13.24 12 12.308 12zm0 2.462a.77.77 0 010-1.539.77.77 0 010 1.539z"/></svg></svg>