<?xml version="1.0" encoding="utf-8"?><svg viewBox="0 0 20 32" xmlns="http://www.w3.org/2000/svg" xmlns:xlink="http://www.w3.org/1999/xlink"><style>:root>svg{display:none}:root>svg:target{display:block}</style><svg viewBox="0 0 20 20" id="cardsearch" xmlns="http://www.w3.org/2000/svg"><path d="M8.242 16.472C3.697 16.472 0 12.777 0 8.236S3.697 0 8.242 0c4.545 0 8.242 3.695 8.242 8.236s-3.697 8.236-8.242 8.236zm0-14.91c-3.683 0-6.68 2.994-6.68 6.674s2.997 6.675 6.68 6.675 6.68-2.995 6.68-6.675c0-3.68-2.997-6.675-6.68-6.675zm11.53 18.21a.78.78 0 000-1.105l-3.497-3.493a.782.782 0 00-1.105 1.104l3.496 3.493a.779.779 0 001.105 0z"/></svg><svg viewBox="0 0 20 32" id="left" xmlns="http://www.w3.org/2000/svg"><path d="M1.038 17.015l16.014 14.593a1.35 1.35 0 001.903 0 1.335 1.335 0 000-1.894L3.907 16 18.953 2.286a1.335 1.335 0 000-1.894 1.35 1.35 0 00-1.903 0L1.037 14.985c-.28.279-.4.648-.382 1.014a1.33 1.33 0 00.383 1.016z"/></svg></svg>